<mxfile host="app.diagrams.net" modified="2022-12-27T12:32:57.874Z" agent="5.0 (Macintosh; Intel Mac OS X 10_15_7) AppleWebKit/537.36 (KHTML, like Gecko) Chrome/108.0.0.0 Safari/537.36" version="20.7.4" etag="gmyyKbmjes_teAjlFozP" type="github">
  <diagram id="5NtX_Wvmh-GeWF7cQuOn" name="Page-1">
    <mxGraphModel dx="1026" dy="661" grid="1" gridSize="10" guides="1" tooltips="1" connect="1" arrows="1" fold="1" page="1" pageScale="1" pageWidth="850" pageHeight="1100" math="0" shadow="0">
      <root>
        <mxCell id="0" />
        <mxCell id="1" parent="0" />
        <mxCell id="cWBHKGqcajPQgnPL3pIP-1" value="&lt;font style=&quot;font-size: 16px&quot;&gt;EVM&lt;/font&gt;" style="shape=cube;whiteSpace=wrap;html=1;boundedLbl=1;backgroundOutline=1;darkOpacity=0.05;darkOpacity2=0.1;" vertex="1" parent="1">
          <mxGeometry x="160" y="390" width="120" height="60" as="geometry" />
        </mxCell>
        <mxCell id="cWBHKGqcajPQgnPL3pIP-2" value="&lt;font style=&quot;font-size: 16px&quot;&gt;PoW&lt;/font&gt;" style="shape=cube;whiteSpace=wrap;html=1;boundedLbl=1;backgroundOutline=1;darkOpacity=0.05;darkOpacity2=0.1;" vertex="1" parent="1">
          <mxGeometry x="160" y="370" width="120" height="40" as="geometry" />
        </mxCell>
        <mxCell id="cWBHKGqcajPQgnPL3pIP-3" value="&lt;font style=&quot;font-size: 16px&quot;&gt;EVM&lt;/font&gt;" style="shape=cube;whiteSpace=wrap;html=1;boundedLbl=1;backgroundOutline=1;darkOpacity=0.05;darkOpacity2=0.1;" vertex="1" parent="1">
          <mxGeometry x="370" y="390" width="120" height="60" as="geometry" />
        </mxCell>
        <mxCell id="cWBHKGqcajPQgnPL3pIP-4" value="&lt;font style=&quot;font-size: 16px&quot;&gt;PoW&lt;/font&gt;" style="shape=cube;whiteSpace=wrap;html=1;boundedLbl=1;backgroundOutline=1;darkOpacity=0.05;darkOpacity2=0.1;" vertex="1" parent="1">
          <mxGeometry x="370" y="370" width="120" height="40" as="geometry" />
        </mxCell>
        <mxCell id="cWBHKGqcajPQgnPL3pIP-5" value="&lt;font style=&quot;font-size: 16px&quot;&gt;EVM&lt;/font&gt;" style="shape=cube;whiteSpace=wrap;html=1;boundedLbl=1;backgroundOutline=1;darkOpacity=0.05;darkOpacity2=0.1;" vertex="1" parent="1">
          <mxGeometry x="580" y="390" width="120" height="60" as="geometry" />
        </mxCell>
        <mxCell id="cWBHKGqcajPQgnPL3pIP-6" value="&lt;font style=&quot;font-size: 16px&quot;&gt;PoW&lt;/font&gt;" style="shape=cube;whiteSpace=wrap;html=1;boundedLbl=1;backgroundOutline=1;darkOpacity=0.05;darkOpacity2=0.1;" vertex="1" parent="1">
          <mxGeometry x="580" y="370" width="120" height="40" as="geometry" />
        </mxCell>
        <mxCell id="cWBHKGqcajPQgnPL3pIP-7" value="&lt;font style=&quot;font-size: 16px&quot;&gt;EVM&lt;/font&gt;" style="shape=cube;whiteSpace=wrap;html=1;boundedLbl=1;backgroundOutline=1;darkOpacity=0.05;darkOpacity2=0.1;" vertex="1" parent="1">
          <mxGeometry x="790" y="390" width="120" height="60" as="geometry" />
        </mxCell>
        <mxCell id="cWBHKGqcajPQgnPL3pIP-8" value="&lt;font style=&quot;font-size: 16px&quot;&gt;PoW&lt;/font&gt;" style="shape=cube;whiteSpace=wrap;html=1;boundedLbl=1;backgroundOutline=1;darkOpacity=0.05;darkOpacity2=0.1;" vertex="1" parent="1">
          <mxGeometry x="790" y="370" width="120" height="40" as="geometry" />
        </mxCell>
        <mxCell id="cWBHKGqcajPQgnPL3pIP-9" value="" style="endArrow=classic;html=1;rounded=0;strokeWidth=1.5;fontSize=16;exitX=0;exitY=0;exitDx=0;exitDy=20;exitPerimeter=0;" edge="1" parent="1" source="cWBHKGqcajPQgnPL3pIP-3">
          <mxGeometry width="50" height="50" relative="1" as="geometry">
            <mxPoint x="350" y="409.5" as="sourcePoint" />
            <mxPoint x="280" y="410" as="targetPoint" />
          </mxGeometry>
        </mxCell>
        <mxCell id="cWBHKGqcajPQgnPL3pIP-10" value="" style="endArrow=classic;html=1;rounded=0;strokeWidth=1.5;fontSize=16;exitX=0;exitY=0;exitDx=0;exitDy=20;exitPerimeter=0;" edge="1" parent="1">
          <mxGeometry width="50" height="50" relative="1" as="geometry">
            <mxPoint x="580" y="410" as="sourcePoint" />
            <mxPoint x="490" y="410" as="targetPoint" />
          </mxGeometry>
        </mxCell>
        <mxCell id="cWBHKGqcajPQgnPL3pIP-11" value="" style="endArrow=classic;html=1;rounded=0;strokeWidth=1.5;fontSize=16;exitX=0;exitY=0;exitDx=0;exitDy=20;exitPerimeter=0;" edge="1" parent="1">
          <mxGeometry width="50" height="50" relative="1" as="geometry">
            <mxPoint x="790" y="410" as="sourcePoint" />
            <mxPoint x="700" y="410" as="targetPoint" />
          </mxGeometry>
        </mxCell>
        <mxCell id="cWBHKGqcajPQgnPL3pIP-12" value="&lt;span style=&quot;font-size: 16px; user-select: auto;&quot;&gt;Monolithic&amp;nbsp;Chain&lt;/span&gt;" style="text;html=1;strokeColor=none;fillColor=none;align=center;verticalAlign=middle;whiteSpace=wrap;rounded=0;fontSize=12;" vertex="1" parent="1">
          <mxGeometry y="395" width="150" height="30" as="geometry" />
        </mxCell>
      </root>
    </mxGraphModel>
  </diagram>
</mxfile>
